<?xml version="1.0" standalone="no"?>
<!DOCTYPE svg PUBLIC "-//W3C//DTD SVG 20010904//EN"
 "http://www.w3.org/TR/2001/REC-SVG-20010904/DTD/svg10.dtd">
<svg version="1.0" xmlns="http://www.w3.org/2000/svg"
 width="1024.000000pt" height="1024.000000pt" viewBox="0 0 1024.000000 1024.000000"
 preserveAspectRatio="xMidYMid meet">
<metadata>
Created by potrace 1.11, written by Peter Selinger 2001-2013
</metadata>
<g transform="translate(0.000000,1024.000000) scale(0.100000,-0.100000)"
fill="#000000" stroke="none">
<path d="M4504 7574 c-54 -13 -81 -37 -105 -89 -17 -38 -18 -117 -16 -1475 l2
-1435 22 -55 c26 -63 71 -117 125 -149 77 -45 107 -47 1021 -46 851 0 862 0
897 21 19 11 45 38 57 60 22 38 23 44 20 366 -2 312 -3 328 -23 354 -11 15
-33 37 -48 48 -27 21 -40 21 -607 24 l-579 3 -2 1132 c-3 1286 4 1185 -86
1228 -44 22 -57 23 -340 24 -187 0 -310 -4 -338 -11z"/>
<path d="M2215 6602 c-22 -1 -69 -7 -105 -12 -190 -29 -331 -72 -499 -154
-517 -251 -891 -812 -958 -1436 -10 -92 -10 -400 1 -495 28 -270 132 -583 266
-800 97 -157 250 -333 380 -437 410 -324 987 -433 1505 -283 91 27 104 32 234
92 331 151 628 448 790 788 23 50 47 98 52 107 26 50 97 280 112 368 6 29 15
82 22 125 8 48 19 223 19 305 0 587 -225 1109 -625 1449 -101 85 -102 86 -206
149 -210 127 -399 191 -668 227 -54 8 -255 12 -320 7z m232 -796 c312 -35 572
-263 683 -597 52 -155 63 -235 64 -439 1 -208 -19 -348 -67 -462 -9 -21 -14
-38 -12 -38 10 0 -94 -191 -126 -232 -123 -156 -257 -249 -434 -299 -87 -24
-261 -32 -363 -16 -246 38 -466 207 -589 450 -35 70 -89 223 -98 281 -3 17 -8
38 -10 46 -22 81 -23 368 -1 502 46 280 180 522 366 660 159 118 368 169 587
144z"/>
<path d="M6827 6530 c-28 -8 -86 -47 -118 -79 -9 -9 -51 -47 -94 -86 -289
-257 -310 -280 -320 -360 -5 -37 31 -118 71 -161 16 -17 58 -64 94 -105 70
-80 154 -173 204 -229 18 -19 72 -80 122 -135 49 -55 93 -105 99 -111 9 -10
103 -115 153 -173 13 -14 38 -42 56 -61 28 -31 172 -193 218 -245 19 -23 20
-22 -66 -115 -17 -19 -85 -96 -151 -170 -65 -74 -121 -137 -124 -140 -3 -3
-37 -41 -76 -85 -62 -71 -105 -119 -155 -175 -8 -9 -46 -52 -85 -96 -38 -43
-72 -81 -75 -84 -3 -3 -39 -43 -80 -90 -41 -47 -89 -101 -106 -120 -17 -19
-57 -64 -89 -100 -145 -163 -133 -229 78 -416 73 -64 163 -144 200 -178 120
-107 155 -124 236 -117 47 4 101 53 242 218 79 92 146 170 149 173 3 3 57 66
120 140 63 74 117 137 120 140 3 3 43 50 90 105 47 55 89 105 95 111 5 6 30
35 55 64 25 30 56 66 70 81 14 15 51 59 84 98 32 39 62 71 67 71 4 0 44 -44
89 -97 45 -54 89 -107 98 -118 10 -11 71 -85 137 -165 66 -80 122 -147 125
-150 3 -3 25 -30 50 -60 25 -30 47 -57 50 -60 3 -3 82 -97 175 -210 93 -113
172 -207 175 -210 3 -3 23 -26 43 -52 42 -51 94 -81 145 -83 41 -2 116 32 158
71 17 16 64 58 104 94 40 36 83 74 96 85 12 11 55 49 95 85 101 90 109 99 131
148 22 48 19 102 -6 149 -14 26 -73 97 -165 198 -20 22 -68 76 -106 120 -39
44 -72 82 -75 85 -5 5 -47 52 -146 165 -144 164 -319 363 -353 400 -20 22 -83
93 -140 158 l-103 117 88 102 c49 56 96 109 104 118 8 9 27 30 41 46 45 53
173 198 205 234 17 19 82 94 145 165 120 138 159 182 198 224 13 14 39 45 58
67 18 23 56 66 84 95 91 99 112 183 65 263 -13 23 -68 82 -122 131 -54 50
-108 99 -119 110 -69 65 -194 173 -219 189 -19 12 -49 19 -82 20 -70 1 -103
-23 -217 -159 -50 -60 -104 -123 -119 -140 -14 -16 -66 -77 -114 -135 -49 -58
-93 -110 -99 -116 -5 -6 -113 -133 -240 -283 l-230 -272 -40 44 c-56 60 -93
102 -230 262 -66 77 -122 142 -125 145 -3 3 -46 52 -95 110 -50 58 -95 110
-101 115 -6 6 -67 75 -135 155 -158 186 -208 239 -239 255 -35 18 -89 24 -123
15z"/>
</g>
</svg>
